<svg xmlns="http://www.w3.org/2000/svg" width="64" height="64" viewBox="0 0 32 32"><defs><linearGradient id="a" x1="262.624" x2="375.377" y1="547.206" y2="432.484" gradientUnits="userSpaceOnUse"><stop offset="0" stop-color="#070135"/><stop offset="1" stop-color="#612d50"/></linearGradient></defs><g transform="matrix(.24963 0 0 .24924 -63.666 -106.047)"><rect width="128.016" height="128.546" x="255.239" y="425.326" fill="url(#a)" ry="20.68"/><path fill="#fff" d="M320.213 480.665c3.27 0 5.748-.7 7.437-2.133s2.533-3.52 2.533-6.293q0-4.107-2.533-6.24c-1.7-1.458-4.168-2.187-7.437-2.187h-11.48v16.854zm.7 34.827q6.25 0 9.377-2.613 3.18-2.613 3.18-7.893 0-5.174-3.126-7.733-3.126-2.613-9.43-2.613h-12.18v20.854h12.18m19.293-28.64q6.682 1.92 10.347 7.093c3.665 5.173 3.664 7.68 3.665 12.694q0 11.52-7.868 17.174c-7.868 5.654-13.22 5.653-23.927 5.653h-34.436V449.84h31.15q16.76 0 24.25 5.013 7.545 5.014 7.545 16.054 0 5.813-2.748 9.92c-1.832 2.702-4.5 4.7-7.976 6.027"/></g></svg>