<svg xmlns="http://www.w3.org/2000/svg" xmlns:xlink="http://www.w3.org/1999/xlink" width="120" height="60"><defs><linearGradient id="a" x1="262.624" x2="375.377" y1="547.206" y2="432.484" gradientUnits="userSpaceOnUse"><stop offset="0" stop-color="#070135"/><stop offset="1" stop-color="#612d50"/></linearGradient><path id="b" d="M31.225 43.044a2.69 2.69 0 0 0-2.285 1.133q-.84 1.124-.84 3.086c0 1.962.277 2.34.83 3.096q.84 1.124 2.295 1.123a2.68 2.68 0 0 0 2.275-1.133q.84-1.133.84-3.086 0-1.943-.84-3.076-.84-1.143-2.275-1.143m0-1.523c1.562 0 2.8.508 3.682 1.523s1.338 2.422 1.338 4.22-.446 3.197-1.338 4.22q-1.339 1.523-3.682 1.523c-1.57 0-2.8-.508-3.7-1.523q-1.328-1.532-1.328-4.22 0-2.695 1.328-4.22c.892-1.016 2.122-1.523 3.7-1.523"/></defs><g transform="matrix(.2469 0 0 .2469 -19.062 -101.552)"><rect width="128.016" height="128.546" x="255.239" y="425.326" fill="url(#a)" ry="20.68"/><path fill="#fff" d="M320.213 480.665c3.27 0 5.748-.7 7.437-2.133s2.533-3.52 2.533-6.293q0-4.107-2.533-6.24c-1.7-1.458-4.168-2.187-7.437-2.187h-11.48v16.854zm.7 34.827q6.25 0 9.377-2.613 3.18-2.613 3.18-7.893 0-5.174-3.126-7.733-3.126-2.613-9.43-2.613h-12.18v20.854h12.18m19.293-28.64q6.682 1.92 10.347 7.093c3.665 5.173 3.664 7.68 3.665 12.694q0 11.52-7.868 17.174c-7.868 5.654-13.22 5.653-23.927 5.653h-34.436V449.84h31.15q16.76 0 24.25 5.013 7.545 5.014 7.545 16.054 0 5.813-2.748 9.92c-1.832 2.702-4.5 4.7-7.976 6.027"/></g><g fill="#230f3d"><path d="M15.427 45.76v5.34h3.164q1.591 0 2.354-.654.77-.665.77-2.02c0-.9-.257-1.582-.77-2.012q-.761-.654-2.354-.654zm0-5.996v4.395h2.92q1.446 0 2.148-.537.713-.547.713-1.66 0-1.104-.713-1.65c-.713-.546-1.185-.547-2.148-.547zm-1.973-1.62h5.04q2.256 0 3.477.938c1.221.938 1.22 1.514 1.22 2.666q0 1.338-.625 2.13c-.625.792-1.03.856-1.836.986.97.208 1.722.645 2.256 1.3.54.658.8 1.48.8 2.47q0 1.953-1.328 3.018c-1.328 1.065-2.145 1.064-3.78 1.064h-5.234V38.14"/><use xlink:href="#b"/><use xlink:href="#b" x="12.127"/><path d="M53.017 38.678v3.105h3.7v1.396h-3.7v5.938q0 1.338.36 1.72.37.38 1.494.38h1.846v1.504H54.87q-2.08 0-2.87-.77c-.527-.52-.8-1.465-.8-2.832v-5.94h-1.318v-1.396H51.2V38.68h1.807m12.946 3.427v1.7a7 7 0 0 0-1.582-.586 7.3 7.3 0 0 0-1.7-.195c-.892 0-1.563.137-2.012.4q-.664.41-.664 1.23 0 .625.48.986.479.352 1.924.674l.615.137q1.913.41 2.715 1.162c.54.495.8 1.188.8 2.08a2.85 2.85 0 0 1-1.2 2.412c-.8.592-1.904.9-3.3.9q-.879-.001-1.836-.176c-.632-.1-1.3-.28-2.002-.508v-1.855a10 10 0 0 0 1.963.78 7.5 7.5 0 0 0 1.914.254q1.269 0 1.953-.43.684-.44.684-1.23 0-.732-.498-1.123c-.326-.26-1.045-.5-2.158-.752l-.625-.146q-1.67-.351-2.412-1.074-.742-.732-.742-2.002 0-1.544 1.094-2.383c1.094-.839 1.764-.84 3.105-.84a11.4 11.4 0 0 1 1.875.146 8 8 0 0 1 1.621.439m5.133-3.43v3.105h3.7v1.396h-3.7v5.938q0 1.338.36 1.72.37.38 1.494.38H74.8v1.504h-1.846q-2.08 0-2.87-.77c-.527-.52-.8-1.465-.8-2.832v-5.94h-1.318v-1.396h1.318V38.68H71.1m12.3 4.785a2.3 2.3 0 0 0-.664-.254 3.2 3.2 0 0 0-.78-.088q-1.524 0-2.344.996c-.54.658-.8 1.605-.8 2.842v5.762h-1.807v-10.94h1.807v1.7q.567-.996 1.475-1.475.907-.489 2.207-.488a3 3 0 0 1 .41.029l.498.068.01 1.846m6.774 3.76q-2.178 0-3.018.498c-.84.498-.84.898-.84 1.7q0 .957.625 1.523.634.556 1.72.557 1.494 0 2.393-1.055c.605-.7.908-1.65.908-2.822v-.4h-1.787m3.584-.742v6.24h-1.797v-1.66c-.4.664-.92 1.156-1.533 1.475q-.918.469-2.246.47-1.68 0-2.676-.937-.987-.948-.986-2.53c0-1.23.4-2.158 1.23-2.783s2.057-.937 3.7-.937h2.52v-.176q0-1.24-.82-1.914-.81-.684-2.285-.684-.938 0-1.826.225a7.2 7.2 0 0 0-1.709.674v-1.66a11.6 11.6 0 0 1 1.914-.566 8.8 8.8 0 0 1 1.807-.195c1.582 0 2.764.4 3.545 1.23s1.172 2.064 1.172 3.73m5.35 4.596v5.8h-1.807V41.784h1.807v1.66q.567-.976 1.426-1.445.87-.48 2.07-.48a3.91 3.91 0 0 1 3.232 1.582q1.25 1.581 1.25 4.16c0 2.579-.417 3.105-1.25 4.16a3.91 3.91 0 0 1-3.232 1.582c-.8 0-1.5-.156-2.07-.47q-.86-.48-1.426-1.455m6.113-3.818q0-1.983-.82-3.105-.81-1.133-2.236-1.133a2.62 2.62 0 0 0-2.246 1.133c-.54.75-.8 1.784-.8 3.105s.27 2.36.8 3.115q.82 1.124 2.246 1.123c1.426-.001 1.696-.374 2.236-1.123q.82-1.133.82-3.115"/></g></svg>