<svg xmlns="http://www.w3.org/2000/svg" xml:space="preserve" id="Layer_1" width="120" height="60" x="0" y="0" version="1.1"><style id="style2" type="text/css">.st0{fill:#3880ff}</style><g id="g12" transform="matrix(.24043 0 0 .24043 -2.045 -31.69)"><path id="path4" d="M111.8 222.5c-18.5 0-33.5 15-33.5 33.5s15 33.5 33.5 33.5 33.5-15 33.5-33.5c-.1-18.5-15.1-33.5-33.5-33.5" class="st0" style="fill:#3880ff"/><g id="g8"><circle id="circle6" cx="159.8" cy="210.2" r="15.3" class="st0" style="fill:#3880ff"/></g><path id="path10" d="m178.6 225.5-.6-1.4-1 1.2c-2.5 2.8-5.7 5-9.2 6.3l-1 .4.4 1c3.1 7.3 4.6 15.1 4.6 23 0 33.1-26.9 60.1-60.1 60.1s-60-27-60-60.1 26.9-60.1 60.1-60.1c9 0 17.6 2 25.7 5.8l.9.4.4-1c1.5-3.5 3.8-6.5 6.8-8.9l1.2-1-1.4-.7c-10.5-5.4-21.8-8.2-33.7-8.2-40.5 0-73.5 33-73.5 73.5s33 73.5 73.5 73.5 73.5-33 73.5-73.5c0-10.4-2.2-20.6-6.6-30.3" class="st0" style="fill:#3880ff"/></g><g id="g27" transform="matrix(.24043 0 0 .24043 -2.045 -31.69)"><g id="g16"><path id="rect14" d="M223.1 224h15.5v64h-15.5z" class="st0" style="fill:#3880ff"/></g><g id="g20"><path id="rect18" d="M390.4 224h15.5v64h-15.5z" class="st0" style="fill:#3880ff"/></g><path id="path22" d="M354.6 222.5c-10.9 0-19.3 6.6-21.2 8.4l-1-6.9h-12.9v64H335v-38.7c0-7.6 10.3-13.8 17.9-13.8 7.4 0 13.2 7.2 13.2 15.8V288h15.5v-35.2c-.1-16.8-7.4-30.3-27-30.3" class="st0" style="fill:#3880ff"/><path id="path24" d="M446.5 276.4c-11.7 0-19.4-9.1-19.4-20.4s7.7-20.4 19.4-20.4c9.9 0 16 9.6 16 9.6l11.2-7.5c-3.2-5-7-8-12.1-11.1-3.8-2.3-8.9-4.2-14.6-4.2-19.4 0-34.2 14.6-34.3 33.5.1 18.9 14.9 33.5 34.3 33.5 5.7 0 10.8-1.9 14.6-4.2 5.1-3.1 8.9-6.1 12.1-11.1l-11.2-7.5c0 .1-6 9.8-16 9.8" class="st0" style="fill:#3880ff"/><path id="path3000_1_" d="M279 222.5c-19.5 0-33.5 15.3-33.5 33.2 0 18.2 13.6 33.8 33.8 33.8 18.3 0 33.2-14 33.2-33.4 0-22.2-17.4-33.6-33.5-33.6m.2 13.2c9.6 0 18.7 7.8 18.7 20.4 0 12.3-9.1 20.3-18.8 20.3-10.6 0-19-8.6-19-20.4 0-11.7 8.3-20.3 19.1-20.3" class="st0" style="fill:#3880ff"/></g></svg>