<svg xmlns="http://www.w3.org/2000/svg" width="120" height="60" preserveAspectRatio="xMidYMid"><path fill="#f7df1e" d="M6.13 14.062h28v28h-28Z"/><path d="m13.492 37.46 2.143-1.296c.413.733.789 1.353 1.691 1.353.865 0 1.41-.338 1.41-1.654v-8.946h2.631V35.9c0 2.725-1.598 3.965-3.928 3.965-2.105 0-3.327-1.09-3.947-2.405M22.796 37.179l2.143-1.24c.564.92 1.297 1.597 2.594 1.597 1.09 0 1.785-.545 1.785-1.297 0-.902-.714-1.222-1.917-1.748l-.658-.282c-1.898-.808-3.157-1.823-3.157-3.966 0-1.973 1.503-3.477 3.853-3.477 1.672 0 2.875.583 3.74 2.105l-2.049 1.316c-.451-.808-.94-1.128-1.691-1.128-.77 0-1.26.49-1.26 1.128 0 .79.49 1.109 1.617 1.598l.657.282c2.237.958 3.496 1.936 3.496 4.134 0 2.369-1.86 3.666-4.36 3.666-2.443 0-4.022-1.166-4.793-2.688"/><path d="M40.995 35.124c2.06 0 3.525-1.157 3.525-3.597v-8.858h-1.916v8.822c0 1.428-.67 1.916-1.7 1.916-.903 0-1.41-.543-1.843-1.32l-1.555.958c.578 1.139 1.663 2.079 3.489 2.079m10.412-4.682h-2.079c-1.717.018-2.982.705-2.982 2.278 0 1.699 1.229 2.404 2.73 2.404 1.12 0 1.843-.434 2.385-1.247l-.054 1.084h1.826v-4.483c0-2.241-1.374-3.272-3.2-3.272-1.608 0-2.512.56-3.181 1.356L47.9 29.63c.416-.47.995-.904 1.989-.904.976 0 1.518.506 1.518 1.717m0 1.265v.597c0 .832-.759 1.356-1.826 1.356-.94 0-1.446-.344-1.446-.994 0-.67.525-.959 1.32-.959zm6.833 3.417h.235l3.85-7.755h-1.861l-1.537 3.362c-.27.633-.488 1.645-.488 1.645s-.235-1.012-.524-1.645l-1.537-3.362h-2.024Zm9.78-4.682h-2.079c-1.717.018-2.983.705-2.983 2.278 0 1.699 1.23 2.404 2.73 2.404 1.12 0 1.844-.434 2.386-1.247l-.054 1.084h1.826v-4.483c0-2.241-1.374-3.272-3.2-3.272-1.609 0-2.513.56-3.181 1.356l1.048 1.067c.416-.47.994-.904 1.989-.904.976 0 1.518.506 1.518 1.717m0 1.265v.597c0 .832-.76 1.356-1.826 1.356-.94 0-1.446-.344-1.446-.994 0-.67.524-.959 1.32-.959zm7.719 3.417c2.314 0 3.995-1.247 3.995-3.398 0-1.97-1.12-2.947-3.218-3.869l-.795-.361c-1.248-.543-1.772-.959-1.772-1.88 0-.832.615-1.429 1.591-1.429.958 0 1.5.38 1.97 1.194l1.5-.922c-.74-1.32-1.843-1.935-3.47-1.935-2.043 0-3.453 1.302-3.453 3.128 0 1.898 1.085 2.802 2.875 3.597l.813.362c1.338.596 2.06 1.066 2.06 2.133 0 1.012-.885 1.68-2.132 1.68-1.5 0-2.242-.758-2.82-1.717l-1.573.868c.687 1.392 2.097 2.549 4.429 2.549m9.653 0c1.464 0 2.368-.524 3.11-1.374l-1.248-1.084c-.416.47-.958.85-1.862.85-1.356 0-2.17-.995-2.17-2.35 0-1.357.814-2.35 2.17-2.35.777 0 1.41.36 1.772.885l1.301-1.049c-.723-.903-1.645-1.446-3.073-1.446-2.314 0-4.05 1.7-4.05 3.96 0 2.277 1.736 3.958 4.05 3.958m4.845-.163h1.825v-3.687c0-1.7.742-2.332 1.826-2.332.416 0 .705.108.994.253l.615-1.645c-.325-.2-.705-.326-1.247-.326-.832 0-1.7.38-2.206 1.573l.018-1.428h-1.825zm7.718-9.327c.651 0 1.212-.488 1.212-1.212 0-.686-.56-1.193-1.212-1.193-.65 0-1.21.507-1.21 1.193 0 .724.56 1.212 1.21 1.212m-.921 9.327h1.843V27.37h-1.843zm4.211 3.833h1.844V33.66c.434.85 1.338 1.464 2.603 1.464 1.97 0 3.562-1.681 3.562-3.977s-1.573-3.94-3.525-3.94c-1.302 0-2.206.632-2.694 1.572l.054-1.41h-1.844zm3.977-5.279c-1.337 0-2.205-.94-2.205-2.368 0-1.374.868-2.314 2.205-2.314 1.32 0 2.152.94 2.152 2.314 0 1.428-.832 2.368-2.152 2.368m8.786 1.627c.976 0 1.573-.361 1.952-.723l-.868-1.23c-.198.164-.47.362-.903.362-.47 0-.76-.253-.76-1.12v-3.525h2.025v-1.537h-2.025V23.41h-1.825v3.959h-1.14v1.537h1.14v3.488c0 2.025.976 2.748 2.404 2.748" aria-label="JavaScript" style="font-weight:600;font-size:16px;line-height:1;font-family:&quot;Neutraface Text&quot;;-inkscape-font-specification:&quot;Neutraface Text Semi-Bold&quot;;fill:#04233e;stroke-width:2.79176;stroke-linecap:square"/></svg>