<svg xmlns="http://www.w3.org/2000/svg" width="120" height="60" fill="#ef533f"><path d="M32.054 44.357a.65.65 0 0 1-.559-.316l-4.915-8.198-9.192 2.5a.65.65 0 0 1-.726-.326L5.92 17.825a.65.65 0 0 1 .486-.95l9.12-1.226a.65.65 0 0 1 .646.308l11 18.374 12.794-3.48-4.266-6.025a.65.65 0 0 1 .363-1.008l5.985-1.415a.65.65 0 0 1 .657.225l5.18 6.468a.65.65 0 0 1-.337 1.034l-5.44 1.484 4.763 6.7a.65.65 0 0 1-.316.99L32.26 44.317a.7.7 0 0 1-.207.04zm-4.172-8.87 4.455 7.43 12.983-4.545-4.534-6.392zM7.507 18.03 17.56 36.95l8.343-2.264-10.625-17.692zm29.833 6.834 4 5.626 4.962-1.35-4.317-5.376zM54.727 22.9h1.3v13.94h-1.295zm14 3.883V36.84H67.45V35.1a5.6 5.6 0 0 1-1.826 1.488 5.1 5.1 0 0 1-5.859-1.049 5.2 5.2 0 0 1-1.511-3.766 5.1 5.1 0 0 1 1.525-3.716 4.97 4.97 0 0 1 3.679-1.543c.78-.01 1.55.17 2.242.527a5.1 5.1 0 0 1 1.761 1.58v-1.84zm-5.17 1a3.91 3.91 0 0 0-3.449 2.021 4.08 4.08 0 0 0 0 4.063 3.97 3.97 0 0 0 1.462 1.508 3.8 3.8 0 0 0 1.97.54 4.04 4.04 0 0 0 2.012-.536 3.75 3.75 0 0 0 1.462-1.45 4.14 4.14 0 0 0 .513-2.07 4 4 0 0 0-1.15-2.918 3.8 3.8 0 0 0-2.821-1.161zm7.592-1h1.322v1.47a4.8 4.8 0 0 1 1.25-1.297 2.46 2.46 0 0 1 1.368-.43 2.36 2.36 0 0 1 1.15.343l-.678 1.1a1.8 1.8 0 0 0-.7-.175 1.87 1.87 0 0 0-1.249.531 3.36 3.36 0 0 0-.92 1.649q-.23.86-.23 3.474v3.403H71.14zm16.2 0V36.84h-1.276V35.1a5.6 5.6 0 0 1-1.826 1.488 5.1 5.1 0 0 1-5.859-1.049 5.2 5.2 0 0 1-1.511-3.766 5.1 5.1 0 0 1 1.527-3.716 4.97 4.97 0 0 1 3.679-1.543c.78-.01 1.55.17 2.242.527a5.1 5.1 0 0 1 1.761 1.58v-1.84zm-5.17 1a3.91 3.91 0 0 0-3.449 2.021 4.08 4.08 0 0 0 0 4.063 3.97 3.97 0 0 0 1.462 1.508 3.8 3.8 0 0 0 1.97.54 4.04 4.04 0 0 0 2.012-.536 3.75 3.75 0 0 0 1.462-1.45 4.14 4.14 0 0 0 .513-2.07A4 4 0 0 0 85 28.931a3.8 3.8 0 0 0-2.819-1.161zm7.133-1h1.38l3.376 7.33 3.34-7.33h1.38l-4.6 10.058h-.23zm19.907 6.72 1.1.573a6 6 0 0 1-1.239 1.702 4.9 4.9 0 0 1-1.582.984 5.5 5.5 0 0 1-1.989.338q-2.46 0-3.85-1.6a5.44 5.44 0 0 1-1.38-3.647 5.32 5.32 0 0 1 1.175-3.4 4.8 4.8 0 0 1 3.987-1.904 4.96 4.96 0 0 1 4.107 1.95q1.092 1.38 1.1 3.45h-9.055a4.1 4.1 0 0 0 1.12 2.872 3.57 3.57 0 0 0 2.674 1.12 4.3 4.3 0 0 0 1.495-.267 4 4 0 0 0 1.235-.708 6 6 0 0 0 1.101-1.442zm0-2.7a4.3 4.3 0 0 0-.754-1.653 3.6 3.6 0 0 0-1.308-.998 4 4 0 0 0-1.704-.38 3.68 3.68 0 0 0-2.545.952q-.777.7-1.175 2.07zm3.64-7.892h1.295v13.94h-1.295z"/></svg>