<svg xmlns="http://www.w3.org/2000/svg" width="120" height="60"><defs><linearGradient id="a" x1="7.294" x2="42.237" y1=".881" y2="59.119" gradientTransform="translate(-1.655 -4.911)scale(1.15223)" gradientUnits="userSpaceOnUse"><stop offset="0%" stop-color="#2383ae"/><stop offset="100%" stop-color="#6dd7b9"/></linearGradient></defs><path fill="url(#a)" d="M16.815 25.63q2.013-8.055 10.066-8.055c8.054 0 9.06 6.038 13.085 7.046q4.027 1.008 7.046-3.018-2.013 8.052-10.065 8.052c-8.054 0-9.059-6.037-13.085-7.045q-4.026-1.008-7.045 3.018zM6.75 37.71q2.013-8.055 10.065-8.055c8.055 0 9.06 6.038 13.085 7.046q4.027 1.008 7.046-3.018-2.013 8.054-10.066 8.054c-8.054 0-9.059-6.038-13.085-7.046Q9.77 33.683 6.75 37.71" style="fill:url(#a);fill-rule:evenodd;stroke-width:1.15223"/><path fill="#24292e" d="M55.482 18.11h-3.458V16.04h9.33v2.072h-3.456v9.397h-2.416zm10.39 8.338a4.4 4.4 0 0 1-1.12.915q-.615.354-1.6.354a3.9 3.9 0 0 1-1.068-.145 2.5 2.5 0 0 1-.887-.45 2.16 2.16 0 0 1-.602-.778c-.148-.318-.226-.693-.226-1.134q0-.867.387-1.414c.259-.366.608-.66 1.013-.852a5 5 0 0 1 1.406-.434q.788-.13 1.587-.16l1.077-.049v-.417q.001-.772-.427-1.059a1.77 1.77 0 0 0-1.004-.287q-1.337 0-1.527 1.013l-2.057-.192q.223-1.315 1.157-1.905.933-.588 2.51-.587.965-.001 1.641.233.677.235 1.086.665c.279.3.483.66.596 1.053q.185.618.184 1.391v5.3h-2.126v-1.058zm-.048-2.683-.999.049q-.708.031-1.141.145c-.29.076-.515.17-.666.281a.84.84 0 0 0-.313.393q-.078.228-.08.5.001.418.287.657c.19.16.462.242.802.242q.87 0 1.415-.402.308-.227.5-.57.19-.344.191-.86v-.433zm4.001-4.642h2.253v8.384h-2.253zm-.03-3.085h2.314v2.023h-2.314zm4.21 0h2.253v11.469h-2.253zm3.262 3.085h2.444l1.175 5.557 1.606-5.477h1.963l1.512 5.494 1.176-5.558h2.348l-2.445 8.384h-2.189l-1.497-5.525-1.512 5.525H79.71l-2.444-8.384Zm13.248 0h2.253v8.384h-2.253zm-.03-3.085h2.314v2.023h-2.314zm4.195 3.085h2.188v1.157q.5-.739 1.18-1.077c.453-.226.93-.337 1.421-.337q1.434 0 2.125.747.692.746.693 2.353v5.54h-2.252v-5.233c0-.605-.112-.99-.339-1.206q-.339-.32-.9-.32-.432.002-.748.128c-.21.084-.406.21-.587.37q-.226.226-.378.538a1.56 1.56 0 0 0-.151.682v5.043h-2.269v-8.384zm15.244 7.277a3.03 3.03 0 0 1-2.606 1.365q-1.768 0-2.639-1.188c-.582-.793-.868-1.89-.868-3.293a6 6 0 0 1 .251-1.79 4.2 4.2 0 0 1 .716-1.397 3.2 3.2 0 0 1 1.141-.908c.454-.212.96-.32 1.528-.32q.626 0 1.244.226c.413.152.802.454 1.168.868v-3.92h2.253v11.47h-2.187v-1.109zm-.048-3.18c0-.536-.046-.964-.152-1.286s-.239-.582-.441-.786a1.56 1.56 0 0 0-.635-.378 2.7 2.7 0 0 0-.683-.088 1.7 1.7 0 0 0-.7.145q-.328.145-.579.45t-.393.8q-.144.495-.145 1.19c0 .501.045.922.15 1.26.107.34.217.612.379.82q.242.314.563.45c.214.09.446.15.692.15q.804 0 1.319-.465c.217-.22.379-.486.473-.779q.151-.458.152-1.18v-.287zM74.389 39.486a5.3 5.3 0 0 1-.426 1.694 4.2 4.2 0 0 1-.949 1.35c-.426.395-.93.698-1.48.89q-.876.319-2.034.32-1.303 0-2.293-.433a4.5 4.5 0 0 1-1.656-1.22q-.668-.788-1.006-1.906-.337-1.119-.337-2.465-.002-1.398.37-2.506.371-1.109 1.06-1.895a4.6 4.6 0 0 1 1.673-1.206q.982-.417 2.223-.417 1.096 0 1.906.272.811.273 1.369.787c.37.341.665.756.892 1.237.236.517.403 1.062.497 1.622l-2.381.306c-.118-.675-.348-1.205-.681-1.591s-.874-.578-1.603-.578q-1.385 0-2.098 1.036c-.474.691-.718 1.667-.718 2.931 0 1.275.257 2.268.765 2.94a2.42 2.42 0 0 0 2.051 1.028q1.111 0 1.633-.57.521-.569.65-1.63zm3.504.227q.08 1.06.68 1.543t1.778.484q.563 0 .95-.121a1.8 1.8 0 0 0 .627-.32c.154-.126.273-.289.345-.474.071-.19.106-.392.104-.594q.002-.453-.336-.844-.337-.395-1.24-.57l-1.497-.273a8.5 8.5 0 0 1-1.56-.417 3.6 3.6 0 0 1-1.135-.666 2.66 2.66 0 0 1-.699-1.004q-.241-.594-.242-1.414c-.01-.501.104-.998.33-1.445.219-.416.533-.774.917-1.044q.59-.417 1.406-.635a7 7 0 0 1 1.803-.216q1.254 0 2.091.287.837.286 1.352.764c.343.317.598.68.764 1.1s.277.852.333 1.301l-2.269.288q-.177-.95-.68-1.366-.505-.416-1.537-.417c-.408 0-.74.034-1.006.105q-.395.105-.635.273a.94.94 0 0 0-.338.393 1.2 1.2 0 0 0-.097.466q0 .643.363.963.362.32 1.23.499l1.575.305q1.867.371 2.737 1.195c.581.55.868 1.361.868 2.385q0 .755-.28 1.391a3.1 3.1 0 0 1-.839 1.109c-.408.338-.881.59-1.39.74q-.834.264-1.963.264-2.349.001-3.594-1.004c-.83-.671-1.28-1.664-1.361-3.028h2.428zm10.435 0q.08 1.06.68 1.543c.4.322.999.484 1.777.484.379 0 .693-.041.953-.121s.466-.188.628-.32c.154-.126.273-.289.345-.474.071-.19.106-.392.104-.594a1.27 1.27 0 0 0-.337-.844q-.339-.395-1.24-.57l-1.498-.273a8.5 8.5 0 0 1-1.56-.417 3.6 3.6 0 0 1-1.134-.666 2.7 2.7 0 0 1-.7-1.004q-.244-.594-.243-1.414c-.01-.501.104-.998.33-1.445.22-.418.526-.767.916-1.06.39-.291.862-.49 1.407-.634a7 7 0 0 1 1.803-.217q1.254 0 2.091.288.836.286 1.352.764c.345.317.599.68.764 1.1q.248.629.333 1.301l-2.269.287q-.177-.949-.68-1.365-.505-.417-1.537-.418-.61 0-1.006.106-.395.105-.635.272a.94.94 0 0 0-.339.394 1.2 1.2 0 0 0-.096.465q0 .642.363.964.361.32 1.23.499l1.592.317q1.866.371 2.737 1.195c.58.55.868 1.361.868 2.385.006.478-.09.952-.281 1.39a3.1 3.1 0 0 1-.838 1.108q-.553.475-1.392.741c-.56.179-1.21.265-1.961.265q-2.35.001-3.596-1.004c-.832-.672-1.28-1.664-1.343-3.028z" style="fill-rule:evenodd;stroke-width:1.51231"/></svg>