<svg xmlns="http://www.w3.org/2000/svg" width="64" height="64" fill="none"><rect width="64" height="64" fill="#3178c6" rx="6.25" style="stroke-width:.125"/><rect width="64" height="64" fill="#3178c6" rx="6.25" style="stroke-width:.125"/><path fill="#fff" fill-rule="evenodd" d="M39.617 50.928v6.258q1.526.782 3.61 1.173 2.084.39 4.392.391 2.25 0 4.274-.43 2.026-.43 3.55-1.418a7.2 7.2 0 0 0 2.417-2.581q.89-1.594.89-3.94 0-1.702-.509-2.983a7 7 0 0 0-1.467-2.278 10.7 10.7 0 0 0-2.299-1.79 25 25 0 0 0-3.022-1.495 38 38 0 0 1-2.21-.988 11 11 0 0 1-1.663-.977q-.686-.5-1.057-1.056a2.22 2.22 0 0 1-.372-1.262q0-.645.333-1.163.333-.519.939-.89t1.487-.577a8.6 8.6 0 0 1 1.956-.205q.783 0 1.653.117.87.119 1.751.362a12 12 0 0 1 1.712.616 9.4 9.4 0 0 1 1.536.86v-5.846a15.3 15.3 0 0 0-3.12-.812q-1.693-.264-3.884-.264-2.23 0-4.226.48-1.995.478-3.511 1.495a7.5 7.5 0 0 0-2.397 2.591q-.88 1.575-.88 3.764 0 2.797 1.614 4.772 1.614 1.974 4.9 3.344 1.291.528 2.407 1.036 1.114.51 1.927 1.056.81.548 1.281 1.193t.47 1.467q0 .606-.294 1.124t-.89.9q-.596.38-1.487.596-.89.215-2.083.215-2.035 0-4.03-.714a12 12 0 0 1-3.698-2.141M29.097 35.51h8.028v-5.135H14.75v5.135h7.988v22.865h6.36z" clip-rule="evenodd" style="stroke-width:.125"/></svg>