<svg xmlns="http://www.w3.org/2000/svg" width="120" height="60" fill="none"><rect width="115.998" height="28.884" x="2.191" y="16.517" fill="#3178c6" rx="1.618" style="stroke-width:.115536"/><path fill="#fff" fill-rule="evenodd" d="M73.015 38.318v-1.083q1.482.94 3.004.94 1.617 0 2.455-.667.837-.666.837-1.863 0-1.055-.563-1.682-.543-.605-2.308-1.634l-.133-.077q-2.099-1.217-2.657-2.036t-.558-1.893q0-1.456 1.136-2.472t3.033-1.016q1.232 0 2.464.412v.997a6.2 6.2 0 0 0-2.59-.546q-1.406 0-2.229.709a2.27 2.27 0 0 0-.823 1.802q0 1.053.564 1.676.563.624 2.43 1.697 1.936 1.092 2.576 1.94a3.15 3.15 0 0 1 .64 1.95q0 1.58-1.102 2.578-1.102.996-3.115.996-.713 0-1.641-.22-.93-.22-1.42-.508M38.796 27.003h3.948v-1.936H32.577v1.936h3.938v11.812h2.281zm7.588 13.384 4.448-11.392h-2.253l-2.465 7.154q-.087.328-.138.535l-.035.155h-.048l-.123-.513-.05-.197-2.35-7.134h-2.474l3.918 9.8-.664 1.611q-.617 1.228-1.868 1.228-.434 0-.963-.173v1.851q.472.125 1.175.125 2.503 0 3.89-3.05m8.104-3.027h-.038v5.961h-2.232V28.994h2.232v1.725h.038q1.145-1.955 3.347-1.955 1.875 0 2.924 1.313 1.05 1.312 1.049 3.526 0 2.454-1.183 3.93t-3.232 1.476q-1.885 0-2.905-1.649m-.075-2.601v-1.21q0-1.26.726-2.098.725-.84 1.917-.839 1.125 0 1.783.815t.658 2.255q0 1.715-.706 2.673-.707.958-1.946.958-1.058 0-1.745-.743-.687-.744-.687-1.811m17.446-.25h-6.655q.037 1.363.834 2.101t2.188.739q1.565 0 2.87-.94v1.793q-1.335.844-3.528.844-2.154 0-3.38-1.338t-1.225-3.765q0-2.292 1.35-3.736 1.349-1.443 3.35-1.443 2.004 0 3.1 1.295t1.096 3.597zm-2.64-3.459q.55.669.56 1.873h-4.505q.152-1.136.812-1.839t1.612-.703q.97 0 1.52.67m16.725 7.996q1.527 0 2.63-.67v-.919q-1.103.785-2.591.785-1.625 0-2.615-1.158-.991-1.16-.991-3.064 0-1.973 1.083-3.212t2.822-1.24q1.267 0 2.33.651v-.996a5.5 5.5 0 0 0-2.194-.46q-2.186 0-3.577 1.49-1.392 1.488-1.392 3.824 0 2.222 1.237 3.595t3.258 1.374m8.445-9.165a1.7 1.7 0 0 0-1.034-.318q-1.157 0-1.942 1.203t-.785 3.418v4.631h-.86v-9.859h.86v2.186h.039q.334-1.126 1.062-1.752a2.5 2.5 0 0 1 1.684-.626q.545 0 .976.173zm1.38-3.53q.224.217.516.217a.73.73 0 0 0 .537-.227.75.75 0 0 0 .224-.543.67.67 0 0 0-.23-.534.8.8 0 0 0-.53-.197.75.75 0 0 0-.513.202.67.67 0 0 0-.229.529q0 .336.224.553m.006 12.464v-9.82h.924v9.82zm3.885-1.748h.038q1.053 1.983 3.255 1.983 1.972 0 3.174-1.518t1.202-3.98q0-2.212-1.049-3.5-1.047-1.288-2.915-1.288-1.178 0-2.159.589a3.88 3.88 0 0 0-1.508 1.67h-.038v-2.02h-.88v14.318h.88zm.043-3.65v1.234q0 1.473.938 2.53t2.466 1.057q1.518 0 2.466-1.287.947-1.286.947-3.38 0-1.837-.87-2.918-.87-1.08-2.32-1.08-1.732 0-2.679 1.147-.948 1.148-.948 2.697m11.886 5.63q.6 0 1.286-.326V37.9q-.63.354-1.172.354-.762 0-1.08-.455-.32-.453-.32-1.468v-6.464h2.572v-.804h-2.572v-2.84q-.21.076-.437.143-.23.077-.439.153v2.544h-1.752v.804h1.752v6.58q0 2.6 2.162 2.6" clip-rule="evenodd" style="stroke-width:.115536"/></svg>